<svg xmlns="http://www.w3.org/2000/svg" viewBox="0 0 900 360" font-family="ui-sans-serif,system-ui,sans-serif" font-size="13">
<style>
.title{font-size:18px;font-weight:600}
.gridline{stroke:#e5e7eb;stroke-width:1}
.bar-base{fill:#ef4444}
.bar-stfu{fill:#22c55e}
.label{fill:#1f2937}
.label-sm{fill:#6b7280;font-size:11px}
.pass{fill:#22c55e}
.fail{fill:#ef4444}
.warn{fill:#f59e0b}
.gone{fill:#9ca3af}
</style>
<text x="450" y="24" text-anchor="middle" class="title">STFU.md char-count per version</text>
<line x1="80" x2="860" y1="300" y2="300" class="gridline"/>
<text x="72" y="304" text-anchor="end" class="label-sm">0</text>
<line x1="80" x2="860" y1="253.4644730336316" y2="253.4644730336316" class="gridline"/>
<text x="72" y="257.46447303363163" text-anchor="end" class="label-sm">2000</text>
<line x1="80" x2="860" y1="206.9289460672632" y2="206.9289460672632" class="gridline"/>
<text x="72" y="210.9289460672632" text-anchor="end" class="label-sm">4000</text>
<line x1="80" x2="860" y1="160.39341910089485" y2="160.39341910089485" class="gridline"/>
<text x="72" y="164.39341910089485" text-anchor="end" class="label-sm">6000</text>
<line x1="80" x2="860" y1="113.85789213452645" y2="113.85789213452645" class="gridline"/>
<text x="72" y="117.85789213452645" text-anchor="end" class="label-sm">8000</text>
<line x1="80" x2="860" y1="67.32236516815809" y2="67.32236516815809" class="gridline"/>
<text x="72" y="71.32236516815809" text-anchor="end" class="label-sm">10000</text>
<rect x="103.4" y="81.81818181818184" width="109.19999999999999" height="218.18181818181816" fill="#3b82f6"/>
<text x="158" y="318" text-anchor="middle" class="label-sm">v0.10</text>
<text x="158" y="77.81818181818184" text-anchor="middle" class="label-sm">9377</text>
<rect x="259.4" y="118.51144483116332" width="109.19999999999999" height="181.48855516883668" fill="#3b82f6"/>
<text x="314" y="318" text-anchor="middle" class="label-sm">v0.11</text>
<text x="314" y="114.51144483116332" text-anchor="middle" class="label-sm">7800</text>
<rect x="415.4" y="202.27539337062638" width="109.19999999999999" height="97.72460662937362" fill="#3b82f6"/>
<text x="470" y="318" text-anchor="middle" class="label-sm">v0.12</text>
<text x="470" y="198.27539337062638" text-anchor="middle" class="label-sm">4200</text>
<rect x="571.4" y="264.60973174207686" width="109.19999999999999" height="35.39026825792314" fill="#3b82f6"/>
<text x="626" y="318" text-anchor="middle" class="label-sm">v0.13.1</text>
<text x="626" y="260.60973174207686" text-anchor="middle" class="label-sm">1521</text>
<rect x="727.4" y="264.60973174207686" width="109.19999999999999" height="35.39026825792314" fill="#3b82f6"/>
<text x="782" y="318" text-anchor="middle" class="label-sm">v0.14</text>
<text x="782" y="260.60973174207686" text-anchor="middle" class="label-sm">1521</text>
</svg>