<svg xmlns="http://www.w3.org/2000/svg" viewBox="0 0 900 380" font-family="ui-sans-serif,system-ui,sans-serif" font-size="13">
<style>
.title{font-size:18px;font-weight:600}
.gridline{stroke:#e5e7eb;stroke-width:1}
.bar-base{fill:#ef4444}
.bar-stfu{fill:#22c55e}
.label{fill:#1f2937}
.label-sm{fill:#6b7280;font-size:11px}
.pass{fill:#22c55e}
.fail{fill:#ef4444}
.warn{fill:#f59e0b}
.gone{fill:#9ca3af}
</style>
<text x="450" y="24" text-anchor="middle" class="title">STFU.md progression — mean reduction % per version</text>
<line x1="70" x2="860" y1="320" y2="320" class="gridline"/>
<text x="62" y="324" text-anchor="end" class="label-sm">0%</text>
<line x1="70" x2="860" y1="268" y2="268" class="gridline"/>
<text x="62" y="272" text-anchor="end" class="label-sm">20%</text>
<line x1="70" x2="860" y1="216" y2="216" class="gridline"/>
<text x="62" y="220" text-anchor="end" class="label-sm">40%</text>
<line x1="70" x2="860" y1="164" y2="164" class="gridline"/>
<text x="62" y="168" text-anchor="end" class="label-sm">60%</text>
<line x1="70" x2="860" y1="112" y2="112" class="gridline"/>
<text x="62" y="116" text-anchor="end" class="label-sm">80%</text>
<line x1="70" x2="860" y1="60" y2="60" class="gridline"/>
<text x="62" y="64" text-anchor="end" class="label-sm">100%</text>
<text x="70" y="338" text-anchor="middle" class="label-sm">v0.10</text>
<text x="267.5" y="338" text-anchor="middle" class="label-sm">v0.11</text>
<text x="465" y="338" text-anchor="middle" class="label-sm">v0.12</text>
<text x="662.5" y="338" text-anchor="middle" class="label-sm">v0.13.1</text>
<text x="860" y="338" text-anchor="middle" class="label-sm">v0.14</text>
<polyline points="70,151 267.5,138 465,122.4 662.5,106.53999999999999 860,3198.306867511108" fill="none" stroke="#22c55e" stroke-width="3"/>
<circle cx="70" cy="151" r="5" fill="#22c55e"/>
<text x="70" y="141" text-anchor="middle" class="label-sm">65.0%</text>
<circle cx="267.5" cy="138" r="5" fill="#22c55e"/>
<text x="267.5" y="128" text-anchor="middle" class="label-sm">70.0%</text>
<circle cx="465" cy="122.4" r="5" fill="#22c55e"/>
<text x="465" y="112.4" text-anchor="middle" class="label-sm">76.0%</text>
<circle cx="662.5" cy="106.53999999999999" r="5" fill="#22c55e"/>
<text x="662.5" y="96.53999999999999" text-anchor="middle" class="label-sm">82.1%</text>
<circle cx="860" cy="3198.306867511108" r="5" fill="#22c55e"/>
<text x="860" y="3188.306867511108" text-anchor="middle" class="label-sm">-1107.0%</text>
</svg>